<svg xmlns="http://www.w3.org/2000/svg" viewBox="0 0 64 64">
  <defs>
    <linearGradient id="g" x1="0" y1="0" x2="1" y2="1">
      <stop offset="0" stop-color="#ff6b81"/>
      <stop offset="1" stop-color="#c14737"/>
    </linearGradient>
  </defs>
  <path d="M32 52c-12-2-20-11-20-22 0-8 6-14 20-14s20 6 20 14c0 11-8 20-20 22z" fill="url(#g)"/>
  <g fill="#2e8b57">
    <path d="M32 16c-2-5-6-6-9-6 0 3 1 5 3 6z"/>
    <path d="M32 16c0-5 2-7 6-8 1 3 0 5-2 7z"/>
    <path d="M32 16c3-3 8-3 10-1-1 3-4 4-7 3z"/>
    <path d="M32 16c-3-3-7-2-9 0 1 3 4 3 7 2z"/>
    <path d="M32 16c-1-4 0-7 2-9 2 1 3 4 1 8z"/>
  </g>
  <g fill="#fff" opacity="0.85">
    <circle cx="22" cy="30" r="1.6"/>
    <circle cx="30" cy="27" r="1.6"/>
    <circle cx="40" cy="30" r="1.6"/>
    <circle cx="27" cy="38" r="1.6"/>
    <circle cx="36" cy="38" r="1.6"/>
  </g>
</svg>
